<svg xmlns="http://www.w3.org/2000/svg" viewBox="0 0 300 300">
<defs>
<linearGradient id="bg" x1="0" y1="0" x2="0" y2="1">
<stop offset="0" stop-color="#f4ecd8"/>
<stop offset="1" stop-color="#e8dcc0"/>
</linearGradient>
</defs>
<rect width="300" height="300" fill="url(#bg)"/>
<path d="M 55 300 Q 60 225 118 208 Q 150 222 182 208 Q 240 225 245 300 Z" fill="#0d5c2e" stroke="#2b2118" stroke-width="4"/><path d="M 118 208 Q 150 228 182 208 Q 178 220 150 224 Q 122 220 118 208 Z" fill="white"/><rect x="60" y="278" width="180" height="10" fill="#d4af37" opacity="0.85"/><ellipse cx="150" cy="152" rx="62" ry="70" fill="#4a2f1c" stroke="#2b2118" stroke-width="4"/><ellipse cx="90" cy="158" rx="12" ry="18" fill="#4a2f1c" stroke="#2b2118" stroke-width="3.5"/><ellipse cx="210" cy="158" rx="12" ry="18" fill="#4a2f1c" stroke="#2b2118" stroke-width="3.5"/><path d="M 98 132 Q 118 124 138 132" stroke="#0d0806" stroke-width="4" fill="none" stroke-linecap="round"/><path d="M 162 132 Q 182 124 202 132" stroke="#0d0806" stroke-width="4" fill="none" stroke-linecap="round"/><ellipse cx="118" cy="155" rx="11.0" ry="12.0" fill="white" stroke="#2b2118" stroke-width="3"/><circle cx="118" cy="156" r="6.0" fill="#1a0f08"/><circle cx="118" cy="153" r="2.4" fill="white"/><ellipse cx="182" cy="155" rx="11.0" ry="12.0" fill="white" stroke="#2b2118" stroke-width="3"/><circle cx="182" cy="156" r="6.0" fill="#1a0f08"/><circle cx="182" cy="153" r="2.4" fill="white"/><path d="M 150 158 Q 142 172 150 176" stroke="#2b2118" stroke-width="3" fill="none" stroke-linecap="round"/><path d="M 128 204 Q 150 210 172 194" stroke="#2b2118" stroke-width="3.5" fill="none" stroke-linecap="round"/><path d="M 88 132 Q 92 74 150 70 Q 208 74 212 132 Q 195 92 150 90 Q 105 92 88 132 Z" fill="#0d0806" stroke="#2b2118" stroke-width="4"/>
</svg>